<svg id="visual" viewBox="0 0 900 600" width="900" height="600" xmlns="http://www.w3.org/2000/svg" xmlns:xlink="http://www.w3.org/1999/xlink" version="1.1"><g stroke-width="1" stroke-linejoin="bevel"><path d="M491 266L597 237L474 224Z" fill="#eb6400" stroke="#eb6400"></path><path d="M439 122L435 197L474 224Z" fill="#8f0e00" stroke="#8f0e00"></path><path d="M474 224L403 338L491 266Z" fill="#b43303" stroke="#b43303"></path><path d="M597 237L534 115L474 224Z" fill="#d95402" stroke="#d95402"></path><path d="M532 363L626 318L597 237Z" fill="#7d0000" stroke="#7d0000"></path><path d="M403 338L532 363L491 266Z" fill="#4e0000" stroke="#4e0000"></path><path d="M491 266L532 363L597 237Z" fill="#8f0e00" stroke="#8f0e00"></path><path d="M534 115L439 122L474 224Z" fill="#d95402" stroke="#d95402"></path><path d="M532 363L561 370L626 318Z" fill="#5c0000" stroke="#5c0000"></path><path d="M597 237L567 74L534 115Z" fill="#4e0000" stroke="#4e0000"></path><path d="M534 115L498 0L439 122Z" fill="#eb6400" stroke="#eb6400"></path><path d="M685 74L567 74L597 237Z" fill="#4e0000" stroke="#4e0000"></path><path d="M319 274L403 338L435 197Z" fill="#b43303" stroke="#b43303"></path><path d="M435 197L403 338L474 224Z" fill="#8f0e00" stroke="#8f0e00"></path><path d="M532 363L572 492L561 370Z" fill="#7d0000" stroke="#7d0000"></path><path d="M713 287L712 211L597 237Z" fill="#b43303" stroke="#b43303"></path><path d="M736 397L713 287L626 318Z" fill="#4e0000" stroke="#4e0000"></path><path d="M626 318L713 287L597 237Z" fill="#d95402" stroke="#d95402"></path><path d="M712 211L685 74L597 237Z" fill="#b43303" stroke="#b43303"></path><path d="M439 122L321 210L435 197Z" fill="#c74303" stroke="#c74303"></path><path d="M321 210L319 274L435 197Z" fill="#c74303" stroke="#c74303"></path><path d="M567 74L498 0L534 115Z" fill="#000000" stroke="#000000"></path><path d="M439 122L323 98L321 210Z" fill="#d95402" stroke="#d95402"></path><path d="M620 0L498 0L567 74Z" fill="#6c0000" stroke="#6c0000"></path><path d="M276 362L377 396L403 338Z" fill="#4e0000" stroke="#4e0000"></path><path d="M403 338L377 396L532 363Z" fill="#b43303" stroke="#b43303"></path><path d="M685 74L620 0L567 74Z" fill="#b43303" stroke="#b43303"></path><path d="M369 0L323 98L439 122Z" fill="#5c0000" stroke="#5c0000"></path><path d="M176 295L276 362L319 274Z" fill="#d95402" stroke="#d95402"></path><path d="M561 370L736 397L626 318Z" fill="#5c0000" stroke="#5c0000"></path><path d="M713 287L814 231L712 211Z" fill="#c74303" stroke="#c74303"></path><path d="M572 492L736 397L561 370Z" fill="#7d0000" stroke="#7d0000"></path><path d="M377 396L475 487L532 363Z" fill="#4e0000" stroke="#4e0000"></path><path d="M475 487L572 492L532 363Z" fill="#4e0000" stroke="#4e0000"></path><path d="M818 0L691 0L685 74Z" fill="#4e0000" stroke="#4e0000"></path><path d="M685 74L691 0L620 0Z" fill="#a22202" stroke="#a22202"></path><path d="M836 128L685 74L712 211Z" fill="#5c0000" stroke="#5c0000"></path><path d="M811 336L814 231L713 287Z" fill="#7d0000" stroke="#7d0000"></path><path d="M498 0L369 0L439 122Z" fill="#c74303" stroke="#c74303"></path><path d="M176 295L319 274L321 210Z" fill="#8f0e00" stroke="#8f0e00"></path><path d="M319 274L276 362L403 338Z" fill="#eb6400" stroke="#eb6400"></path><path d="M377 396L430 522L475 487Z" fill="#d95402" stroke="#d95402"></path><path d="M736 397L811 336L713 287Z" fill="#6c0000" stroke="#6c0000"></path><path d="M814 231L836 128L712 211Z" fill="#6c0000" stroke="#6c0000"></path><path d="M900 184L836 128L814 231Z" fill="#4e0000" stroke="#4e0000"></path><path d="M369 0L312 0L323 98Z" fill="#7d0000" stroke="#7d0000"></path><path d="M323 98L217 136L321 210Z" fill="#8f0e00" stroke="#8f0e00"></path><path d="M269 461L430 522L377 396Z" fill="#c74303" stroke="#c74303"></path><path d="M475 487L500 600L572 492Z" fill="#8f0e00" stroke="#8f0e00"></path><path d="M736 397L789 436L811 336Z" fill="#5c0000" stroke="#5c0000"></path><path d="M682 522L789 436L736 397Z" fill="#4e0000" stroke="#4e0000"></path><path d="M230 0L217 136L323 98Z" fill="#8f0e00" stroke="#8f0e00"></path><path d="M618 600L682 522L572 492Z" fill="#c74303" stroke="#c74303"></path><path d="M572 492L682 522L736 397Z" fill="#4e0000" stroke="#4e0000"></path><path d="M276 362L269 461L377 396Z" fill="#c74303" stroke="#c74303"></path><path d="M189 407L269 461L276 362Z" fill="#eb6400" stroke="#eb6400"></path><path d="M836 128L818 0L685 74Z" fill="#6c0000" stroke="#6c0000"></path><path d="M126 167L175 182L217 136Z" fill="#a22202" stroke="#a22202"></path><path d="M217 136L175 182L321 210Z" fill="#a22202" stroke="#a22202"></path><path d="M900 324L814 231L811 336Z" fill="#6c0000" stroke="#6c0000"></path><path d="M900 324L900 184L814 231Z" fill="#a22202" stroke="#a22202"></path><path d="M836 128L900 100L818 0Z" fill="#a22202" stroke="#a22202"></path><path d="M175 182L176 295L321 210Z" fill="#b43303" stroke="#b43303"></path><path d="M900 369L900 324L811 336Z" fill="#5c0000" stroke="#5c0000"></path><path d="M430 522L500 600L475 487Z" fill="#7d0000" stroke="#7d0000"></path><path d="M402 600L500 600L430 522Z" fill="#7d0000" stroke="#7d0000"></path><path d="M312 0L230 0L323 98Z" fill="#6c0000" stroke="#6c0000"></path><path d="M900 184L900 100L836 128Z" fill="#5c0000" stroke="#5c0000"></path><path d="M682 522L772 527L789 436Z" fill="#d95402" stroke="#d95402"></path><path d="M789 436L900 369L811 336Z" fill="#eb6400" stroke="#eb6400"></path><path d="M696 600L772 527L682 522Z" fill="#4e0000" stroke="#4e0000"></path><path d="M500 600L618 600L572 492Z" fill="#eb6400" stroke="#eb6400"></path><path d="M900 516L900 369L789 436Z" fill="#000000" stroke="#000000"></path><path d="M176 295L189 407L276 362Z" fill="#eb6400" stroke="#eb6400"></path><path d="M295 600L430 522L269 461Z" fill="#4e0000" stroke="#4e0000"></path><path d="M295 600L402 600L430 522Z" fill="#7d0000" stroke="#7d0000"></path><path d="M618 600L696 600L682 522Z" fill="#5c0000" stroke="#5c0000"></path><path d="M132 74L126 167L217 136Z" fill="#5c0000" stroke="#5c0000"></path><path d="M175 182L126 167L176 295Z" fill="#8f0e00" stroke="#8f0e00"></path><path d="M176 295L110 402L189 407Z" fill="#8f0e00" stroke="#8f0e00"></path><path d="M900 100L900 0L818 0Z" fill="#6c0000" stroke="#6c0000"></path><path d="M230 0L132 74L217 136Z" fill="#c74303" stroke="#c74303"></path><path d="M189 407L197 498L269 461Z" fill="#c74303" stroke="#c74303"></path><path d="M110 402L197 498L189 407Z" fill="#b43303" stroke="#b43303"></path><path d="M696 600L762 600L772 527Z" fill="#4e0000" stroke="#4e0000"></path><path d="M772 527L900 516L789 436Z" fill="#5c0000" stroke="#5c0000"></path><path d="M197 498L295 600L269 461Z" fill="#b43303" stroke="#b43303"></path><path d="M70 328L176 295L126 167Z" fill="#c74303" stroke="#c74303"></path><path d="M70 328L110 402L176 295Z" fill="#5c0000" stroke="#5c0000"></path><path d="M900 600L900 516L772 527Z" fill="#a22202" stroke="#a22202"></path><path d="M0 189L70 328L126 167Z" fill="#5c0000" stroke="#5c0000"></path><path d="M230 0L70 0L132 74Z" fill="#8f0e00" stroke="#8f0e00"></path><path d="M0 73L0 189L126 167Z" fill="#4e0000" stroke="#4e0000"></path><path d="M762 600L900 600L772 527Z" fill="#a22202" stroke="#a22202"></path><path d="M127 600L160 600L197 498Z" fill="#c74303" stroke="#c74303"></path><path d="M197 498L160 600L295 600Z" fill="#d95402" stroke="#d95402"></path><path d="M127 600L197 498L66 536Z" fill="#c74303" stroke="#c74303"></path><path d="M0 73L126 167L132 74Z" fill="#4e0000" stroke="#4e0000"></path><path d="M70 328L0 431L110 402Z" fill="#6c0000" stroke="#6c0000"></path><path d="M0 189L0 304L70 328Z" fill="#5c0000" stroke="#5c0000"></path><path d="M66 536L197 498L110 402Z" fill="#8f0e00" stroke="#8f0e00"></path><path d="M70 0L0 73L132 74Z" fill="#000000" stroke="#000000"></path><path d="M0 431L66 536L110 402Z" fill="#5c0000" stroke="#5c0000"></path><path d="M0 304L0 431L70 328Z" fill="#4e0000" stroke="#4e0000"></path><path d="M70 0L0 0L0 73Z" fill="#a22202" stroke="#a22202"></path><path d="M0 431L0 518L66 536Z" fill="#eb6400" stroke="#eb6400"></path><path d="M66 536L0 600L127 600Z" fill="#d95402" stroke="#d95402"></path><path d="M0 518L0 600L66 536Z" fill="#eb6400" stroke="#eb6400"></path></g></svg>